<svg xmlns="http://www.w3.org/2000/svg" viewBox="0 0 512 512">
  <defs>
    <linearGradient id="bgGrad" x1="0%" y1="0%" x2="100%" y2="100%">
      <stop offset="0%" style="stop-color:#6366F1"/>
      <stop offset="100%" style="stop-color:#8B5CF6"/>
    </linearGradient>
    <linearGradient id="accentGrad" x1="0%" y1="0%" x2="100%" y2="100%">
      <stop offset="0%" style="stop-color:#F472B6"/>
      <stop offset="100%" style="stop-color:#EC4899"/>
    </linearGradient>
  </defs>
  
  <!-- Background circle -->
  <circle cx="256" cy="256" r="240" fill="url(#bgGrad)"/>
  
  <!-- Code bracket left { -->
  <path d="M180 160 Q140 160 140 200 L140 230 Q140 256 120 256 Q140 256 140 282 L140 312 Q140 352 180 352" 
        stroke="#FFFFFF" stroke-width="28" stroke-linecap="round" fill="none"/>
  
  <!-- Code bracket right } -->
  <path d="M332 160 Q372 160 372 200 L372 230 Q372 256 392 256 Q372 256 372 282 L372 312 Q372 352 332 352" 
        stroke="#FFFFFF" stroke-width="28" stroke-linecap="round" fill="none"/>
  
  <!-- Bug dot / accent -->
  <circle cx="256" cy="256" r="32" fill="url(#accentGrad)"/>
  
  <!-- Sparkle effect -->
  <circle cx="256" cy="256" r="44" stroke="#FFFFFF" stroke-width="4" fill="none" opacity="0.5"/>
</svg>
